# Blender 4.4.1
# www.blender.org
mtllib road.mtl
o rua_Cubo
v 2.169650 -0.150650 -52.666130
v 2.169650 0.150650 -52.666130
v -2.169655 -0.150650 -52.666130
v -2.169655 0.150650 -52.666130
v 2.169655 -0.150650 53.453285
v 2.169655 0.150650 53.453285
v -2.169650 -0.150650 53.453285
v -2.169650 0.150650 53.453285
vn -0.0000 -0.0000 -1.0000
vn -1.0000 -0.0000 -0.0000
vn -0.0000 -0.0000 1.0000
vn 1.0000 -0.0000 -0.0000
vn -0.0000 -1.0000 -0.0000
vn -0.0000 1.0000 -0.0000
vt 2.338983 0.030904
vt 2.338983 0.969096
vt -1.338983 0.969096
vt -1.338983 0.030904
s 1
usemtl Materiais.001
f 1/1/1 3/2/1 4/3/1 2/4/1
f 3/1/2 7/2/2 8/3/2 4/4/2
f 7/1/3 5/2/3 6/3/3 8/4/3
f 5/1/4 1/2/4 2/3/4 6/4/4
f 3/1/5 1/2/5 5/3/5 7/4/5
f 8/1/6 6/2/6 2/3/6 4/4/6
o rua_Cubo.001
v 6.518532 -0.150650 -52.666130
v 6.518532 0.150650 -52.666130
v 2.179227 -0.150650 -52.666130
v 2.179227 0.150650 -52.666130
v 6.518537 -0.150650 53.453285
v 6.518537 0.150650 53.453285
v 2.179232 -0.150650 53.453285
v 2.179232 0.150650 53.453285
vn -0.0000 -0.0000 -1.0000
vn -1.0000 -0.0000 -0.0000
vn -0.0000 -0.0000 1.0000
vn 1.0000 -0.0000 -0.0000
vn -0.0000 -1.0000 -0.0000
vn -0.0000 1.0000 -0.0000
vt 2.338983 0.030904
vt 2.338983 0.969096
vt -1.338983 0.969096
vt -1.338983 0.030904
s 1
usemtl Materiais.002
f 9/5/7 11/6/7 12/7/7 10/8/7
f 11/5/8 15/6/8 16/7/8 12/8/8
f 15/5/9 13/6/9 14/7/9 16/8/9
f 13/5/10 9/6/10 10/7/10 14/8/10
f 11/5/11 9/6/11 13/7/11 15/8/11
f 16/5/12 14/6/12 10/7/12 12/8/12
o rua_Cubo.002
v -2.128855 -0.150650 -52.666130
v -2.128855 0.150650 -52.666130
v -6.468160 -0.150650 -52.666130
v -6.468160 0.150650 -52.666130
v -2.128850 -0.150650 53.453285
v -2.128850 0.150650 53.453285
v -6.468155 -0.150650 53.453285
v -6.468155 0.150650 53.453285
vn -0.0000 -0.0000 -1.0000
vn -1.0000 -0.0000 -0.0000
vn -0.0000 -0.0000 1.0000
vn 1.0000 -0.0000 -0.0000
vn -0.0000 -1.0000 -0.0000
vn -0.0000 1.0000 -0.0000
vt 2.338983 0.030904
vt 2.338983 0.969096
vt -1.338983 0.969096
vt -1.338983 0.030904
s 1
usemtl Materiais.003
f 17/9/13 19/10/13 20/11/13 18/12/13
f 19/9/14 23/10/14 24/11/14 20/12/14
f 23/9/15 21/10/15 22/11/15 24/12/15
f 21/9/16 17/10/16 18/11/16 22/12/16
f 19/9/17 17/10/17 21/11/17 23/12/17
f 24/9/18 22/10/18 18/11/18 20/12/18
o rua_Cubo.003
v -6.441829 -0.150650 -52.666130
v -6.441829 0.150650 -52.666130
v -10.781134 -0.150650 -52.666130
v -10.781134 0.150650 -52.666130
v -6.441824 -0.150650 53.453285
v -6.441824 0.150650 53.453285
v -10.781129 -0.150650 53.453285
v -10.781129 0.150650 53.453285
vn -0.0000 -0.0000 -1.0000
vn -1.0000 -0.0000 -0.0000
vn -0.0000 -0.0000 1.0000
vn 1.0000 -0.0000 -0.0000
vn -0.0000 -1.0000 -0.0000
vn -0.0000 1.0000 -0.0000
vt 2.338983 0.030904
vt 2.338983 0.969096
vt -1.338983 0.969096
vt -1.338983 0.030904
s 1
usemtl Materiais.004
f 25/13/19 27/14/19 28/15/19 26/16/19
f 27/13/20 31/14/20 32/15/20 28/16/20
f 31/13/21 29/14/21 30/15/21 32/16/21
f 29/13/22 25/14/22 26/15/22 30/16/22
f 27/13/23 25/14/23 29/15/23 31/16/23
f 32/13/24 30/14/24 26/15/24 28/16/24
o rua_Cubo.004
v 10.830412 -0.150650 -52.666130
v 10.830412 0.150650 -52.666130
v 6.491107 -0.150650 -52.666130
v 6.491107 0.150650 -52.666130
v 10.830417 -0.150650 53.453285
v 10.830417 0.150650 53.453285
v 6.491112 -0.150650 53.453285
v 6.491112 0.150650 53.453285
vn -0.0000 -0.0000 -1.0000
vn -1.0000 -0.0000 -0.0000
vn -0.0000 -0.0000 1.0000
vn 1.0000 -0.0000 -0.0000
vn -0.0000 -1.0000 -0.0000
vn -0.0000 1.0000 -0.0000
vt 2.338983 0.030904
vt 2.338983 0.969096
vt -1.338983 0.969096
vt -1.338983 0.030904
s 1
usemtl Materiais.005
f 33/17/25 35/18/25 36/19/25 34/20/25
f 35/17/26 39/18/26 40/19/26 36/20/26
f 39/17/27 37/18/27 38/19/27 40/20/27
f 37/17/28 33/18/28 34/19/28 38/20/28
f 35/17/29 33/18/29 37/19/29 39/20/29
f 40/17/30 38/18/30 34/19/30 36/20/30
